<?xml version="1.0" encoding="utf-8"?>
<!-- Generator: Adobe Illustrator 25.3.1, SVG Export Plug-In . SVG Version: 6.00 Build 0)  -->
<svg version="1.1" id="Layer_1" xmlns="http://www.w3.org/2000/svg" xmlns:xlink="http://www.w3.org/1999/xlink" x="0px" y="0px"
	 viewBox="0 0 48 48.1" style="enable-background:new 0 0 48 48.1;" xml:space="preserve">
<style type="text/css">
	.st0{fill:#D1E3FC;}
	.st1{fill:#FFFFFF;}
	.st2{fill:#919191;}
</style>
<g>
	<path class="st0" d="M24.7,48c0.2-0.1,0.4-0.1,0.7,0C25.1,48,24.9,48,24.7,48z"/>
	<circle class="st1" cx="24" cy="27.5" r="20.6"/>
	<path class="st2" d="M48,22.8c0,0.8,0,1.5,0,2.3c0,0,0,0.1,0,0.1c0,0.7-0.1,1.4-0.2,2.1c-0.3,2.5-1,4.8-2.1,7
		c-2.7,5.5-6.9,9.4-12.5,11.8c-1.6,0.7-3.4,1.2-5.1,1.5c-0.2,0-0.2,0-0.2-0.2c0-5.4,0-10.9,0-16.3c0-0.2,0.1-0.2,0.2-0.2
		c1.7,0,3.5,0,5.2,0c0.1,0,0.2,0,0.2-0.1c0.1-0.6,0.2-1.1,0.2-1.7c0.3-1.6,0.5-3.3,0.8-4.9c0-0.2,0-0.2-0.2-0.2c-2.1,0-4.2,0-6.3,0
		c-0.2,0-0.2,0-0.2-0.2c0-1.4,0-2.9,0-4.3c0-0.4,0-0.7,0.1-1c0.2-1,0.8-1.9,1.7-2.3c0.6-0.3,1.2-0.4,1.9-0.4c1,0,2,0,3,0
		c0.2,0,0.2-0.1,0.2-0.2c0-1.8,0-3.7,0-5.5c0-0.2,0-0.2-0.2-0.2c-1.3-0.2-2.7-0.3-4-0.4c-1.3-0.1-2.7,0-4,0.3
		c-2.4,0.6-4.3,2-5.3,4.3c-0.7,1.4-0.9,2.9-0.9,4.5c0,1.8,0,3.5,0,5.3c0,0.2,0,0.2-0.2,0.2c-1.9,0-3.8,0-5.7,0c-0.1,0-0.2,0-0.2,0.2
		c0,2.2,0,4.4,0,6.6c0,0.1,0,0.2,0.2,0.2c1.9,0,3.8,0,5.7,0c0.2,0,0.2,0,0.2,0.2c0,5.5,0,10.9,0,16.4c0,0.1,0,0.1,0,0.2
		c-0.8-0.1-1.5-0.3-2.3-0.5c-4.5-1.2-8.3-3.4-11.5-6.8c-3.8-4.1-5.9-8.9-6.4-14.5c-0.2-2.1-0.1-4.3,0.3-6.4C1.2,15.6,2.8,12.1,5.2,9
		c2.4-3,5.4-5.3,8.9-6.9c2.6-1.2,5.4-1.9,8.2-2.1c2.2-0.1,4.4,0,6.5,0.4C31.5,1,34,2,36.3,3.4c4.2,2.5,7.3,5.9,9.4,10.3
		c1.3,2.7,2.1,5.6,2.3,8.6C48,22.4,47.9,22.6,48,22.8z"/>
</g>
</svg>
