<?xml version="1.0" encoding="utf-8"?>
<!-- Generator: Adobe Illustrator 25.3.1, SVG Export Plug-In . SVG Version: 6.00 Build 0)  -->
<svg version="1.1" id="Capa_1" xmlns="http://www.w3.org/2000/svg" xmlns:xlink="http://www.w3.org/1999/xlink" x="0px" y="0px"
	 viewBox="0 0 48 48" style="enable-background:new 0 0 48 48;" xml:space="preserve">
<style type="text/css">
	.st0{fill:#919191;}
	.st1{fill:#FFFFFF;}
</style>
<g>
	<circle id="XMLID_115_" class="st0" cx="24" cy="24" r="24"/>
</g>
<g>
	<path class="st1" d="M31.2,8H16.8C12,8,8,12,8,16.8v14.3C8,36,12,40,16.8,40h14.3c4.9,0,8.8-4,8.8-8.8V16.8C40,12,36,8,31.2,8z
		 M37.2,31.2c0,3.3-2.7,6-6,6H16.8c-3.3,0-6-2.7-6-6V16.8c0-3.3,2.7-6,6-6h14.3c3.3,0,6,2.7,6,6L37.2,31.2L37.2,31.2z"/>
	<path class="st1" d="M24,15.8c-4.5,0-8.2,3.7-8.2,8.2c0,4.5,3.7,8.2,8.2,8.2s8.2-3.7,8.2-8.2C32.2,19.5,28.5,15.8,24,15.8z
		 M24,29.4c-3,0-5.4-2.4-5.4-5.4c0-3,2.4-5.4,5.4-5.4s5.4,2.4,5.4,5.4C29.4,27,27,29.4,24,29.4z"/>
	<path class="st1" d="M32.6,13.3c-0.5,0-1.1,0.2-1.5,0.6c-0.4,0.4-0.6,0.9-0.6,1.5c0,0.5,0.2,1.1,0.6,1.5c0.4,0.4,0.9,0.6,1.5,0.6
		c0.5,0,1.1-0.2,1.5-0.6c0.4-0.4,0.6-0.9,0.6-1.5c0-0.5-0.2-1.1-0.6-1.5C33.7,13.6,33.1,13.3,32.6,13.3z"/>
</g>
</svg>
