<?xml version="1.0" encoding="utf-8"?>
<!-- Generator: Adobe Illustrator 25.3.1, SVG Export Plug-In . SVG Version: 6.00 Build 0)  -->
<svg version="1.1" id="Layer_1" xmlns="http://www.w3.org/2000/svg" xmlns:xlink="http://www.w3.org/1999/xlink" x="0px" y="0px"
	 viewBox="0 0 48 48" style="enable-background:new 0 0 48 48;" xml:space="preserve">
<style type="text/css">
	.st0{fill:#919191;}
	.st1{fill:#FFFFFF;}
</style>
<circle class="st0" cx="24" cy="24" r="24"/>
<path class="st1" d="M39.4,14.5c-1.1,0.5-2.3,0.8-3.6,1c1.3-0.8,2.3-2,2.8-3.5c-1.2,0.7-2.6,1.3-4,1.5c-1.2-1.2-2.8-2-4.6-2
	c-3.5,0-6.3,2.8-6.3,6.3c0,0.5,0.1,1,0.2,1.4c-5.2-0.3-9.9-2.8-13-6.6c-0.5,0.9-0.9,2-0.9,3.2c0,2.2,1.1,4.1,2.8,5.3
	c-1,0-2-0.3-2.9-0.8v0.1c0,3.1,2.2,5.6,5.1,6.2c-0.5,0.1-1.1,0.2-1.7,0.2c-0.4,0-0.8,0-1.2-0.1c0.8,2.5,3.1,4.3,5.9,4.4
	c-2.2,1.7-4.9,2.7-7.8,2.7c-0.5,0-1,0-1.5-0.1c2.8,1.8,6.1,2.8,9.7,2.8c11.6,0,18-9.6,18-18c0-0.3,0-0.5,0-0.8
	C37.5,16.8,38.5,15.7,39.4,14.5L39.4,14.5z"/>
</svg>
